<svg width="49" height="51" viewBox="0 0 49 51" fill="none" xmlns="http://www.w3.org/2000/svg">
<path d="M25.5117 39.7375C27.1618 40.8664 29.0278 41.6379 30.9909 42.0032C32.954 42.3684 34.9713 42.3193 36.9145 41.8589C38.8577 41.3986 40.6843 40.5371 42.278 39.3293C43.8717 38.1215 45.1977 36.5937 46.1717 34.8433C47.1457 33.0928 47.7463 31.1579 47.9353 29.1616C48.1244 27.1653 47.8978 25.1514 47.2698 23.2479C46.6419 21.3444 45.6264 19.5929 44.288 18.105C42.9496 16.617 41.3175 15.4251 39.4955 14.6051C39.0955 14.4031 38.7776 14.0679 38.5962 13.6567C37.4307 10.8679 35.4711 8.4869 32.9634 6.81251C30.4556 5.13811 27.5113 4.24487 24.5 4.24487C21.4887 4.24487 18.5444 5.13811 16.0366 6.81251C13.5289 8.4869 11.5693 10.8679 10.4038 13.6567C10.2224 14.0679 9.90453 14.4031 9.50447 14.6051C7.68253 15.4251 6.05045 16.617 4.71202 18.105C3.37359 19.5929 2.35812 21.3444 1.73018 23.2479C1.10225 25.1514 0.875601 27.1653 1.06465 29.1616C1.25371 31.1579 1.85432 33.0928 2.8283 34.8433C3.80227 36.5937 5.12829 38.1215 6.72202 39.3293C8.31574 40.5371 10.1423 41.3986 12.0855 41.8589C14.0287 42.3193 16.046 42.3684 18.0091 42.0032C19.9722 41.6379 21.8382 40.8664 23.4883 39.7375C23.7888 39.5394 24.1405 39.4338 24.5 39.4338C24.8595 39.4338 25.2112 39.5394 25.5117 39.7375Z" fill="#FFD550" stroke="#1C1F35" stroke-width="2" stroke-linecap="round" stroke-linejoin="round"/>
<path d="M42.5533 29.8874C41.4129 32.7356 38.6091 37.5017 30.9355 37.5017" stroke="#1C1F35" stroke-width="2" stroke-linecap="round" stroke-linejoin="round"/>
<path d="M6.88031 10.7233C8.18284 7.74873 11.2221 3.49936 17.8398 1.96851" stroke="#1C1F35" stroke-width="2" stroke-linecap="round" stroke-linejoin="round"/>
<path d="M24.8623 49.9112V18.7146" stroke="#1C1F35" stroke-width="2" stroke-linecap="round" stroke-linejoin="round"/>
<path d="M24.8622 32.58L14.2373 27.3806" stroke="#1C1F35" stroke-width="2" stroke-linecap="round" stroke-linejoin="round"/>
<path d="M15.1228 24.3587L18.5869 26.3162" stroke="white" stroke-linecap="round" stroke-linejoin="round"/>
<path d="M21.7744 18.4266L21.7744 22.3416" stroke="#1C1F35" stroke-linecap="round" stroke-linejoin="round"/>
<path d="M27.5654 43.2449L27.5654 48.2449" stroke="#1C1F35" stroke-width="1.5" stroke-linecap="round" stroke-linejoin="round"/>
<path d="M24.8623 27.3808L35.4872 22.1814" stroke="#1C1F35" stroke-width="2" stroke-linecap="round" stroke-linejoin="round"/>
</svg>
