<svg width="56" height="40" viewBox="0 0 56 40" fill="none" xmlns="http://www.w3.org/2000/svg">
<path d="M24.8271 28.8953C32.3508 28.8953 38.45 22.7961 38.45 15.2724C38.45 7.74862 32.3508 1.64941 24.8271 1.64941C17.3033 1.64941 11.2041 7.74862 11.2041 15.2724C11.2041 22.7961 17.3033 28.8953 24.8271 28.8953Z" fill="#FFD550" stroke="#1C1F35" stroke-width="2" stroke-linecap="round" stroke-linejoin="round"/>
<path d="M5.34668 37.9774C7.73355 35.1326 10.7145 32.8451 14.08 31.2756C17.4456 29.7061 21.114 28.8928 24.8275 28.8928C28.541 28.8928 32.2094 29.7061 35.575 31.2756C38.9405 32.8451 41.9215 35.1326 44.3084 37.9774" stroke="#1C1F35" stroke-width="2" stroke-linecap="round" stroke-linejoin="round"/>
<path d="M51.8916 39.1123L41.6744 39.1123L41.6744 20.9484L51.8916 20.9484L51.8916 39.1123Z" fill="white" stroke="#141414" stroke-linecap="round" stroke-linejoin="round"/>
<path d="M51.8916 27.76L41.6744 27.76L41.6744 20.9485L51.8916 20.9485L51.8916 27.76Z" fill="#FFD550" stroke="black" stroke-linecap="round" stroke-linejoin="round"/>
<path d="M48.4863 25.4895L45.0806 25.4895" stroke="#141414" stroke-linecap="round" stroke-linejoin="round"/>
<path d="M48.4863 31.1653L45.0806 31.1653" stroke="#141414" stroke-linecap="round" stroke-linejoin="round"/>
<path d="M55.2979 28.8953L55.2979 38.5526" stroke="#1C1F35" stroke-linecap="round" stroke-linejoin="round"/>
<path d="M6.71985 22.6294C5.84412 21.4753 3.68546 17.6349 5.35547 10.4199" stroke="#1C1F35" stroke-width="1.5" stroke-linecap="round" stroke-linejoin="round"/>
<path d="M35.2446 16.685C35.1963 17.8454 34.555 21.3291 29.708 25.0125" stroke="#1C1F35" stroke-linecap="round" stroke-linejoin="round"/>
</svg>
