<svg width="63" height="63" viewBox="0 0 63 63" fill="none" xmlns="http://www.w3.org/2000/svg">
<path d="M42.8672 29.3944V19.4301H48.464C51.2985 19.4301 53.8533 21.1395 54.9346 23.7597L56.975 28.7037C57.1108 29.0328 56.8689 29.3944 56.5128 29.3944H42.8672Z" fill="#FFD550" stroke="#1C1F35" stroke-width="2"/>
<path d="M5.22461 36.0373H42.8675" stroke="#1C1F35" stroke-width="2" stroke-linecap="round" stroke-linejoin="round"/>
<path d="M46.1888 53.7518C49.8575 53.7518 52.8316 50.7777 52.8316 47.109C52.8316 43.4402 49.8575 40.4661 46.1888 40.4661C42.52 40.4661 39.5459 43.4402 39.5459 47.109C39.5459 50.7777 42.52 53.7518 46.1888 53.7518Z" stroke="#1C1F35" stroke-width="2" stroke-linecap="round" stroke-linejoin="round"/>
<path d="M17.4026 53.7518C21.0714 53.7518 24.0455 50.7777 24.0455 47.109C24.0455 43.4402 21.0714 40.4661 17.4026 40.4661C13.7339 40.4661 10.7598 43.4402 10.7598 47.109C10.7598 50.7777 13.7339 53.7518 17.4026 53.7518Z" fill="#FFD550" stroke="#1C1F35" stroke-width="2" stroke-linecap="round" stroke-linejoin="round"/>
<path d="M39.5459 46.0013H24.0459" stroke="#1C1F35" stroke-width="2" stroke-linecap="round" stroke-linejoin="round"/>
<path d="M10.705 46.0013H7.10675C6.60758 46.0013 6.12885 45.7972 5.77588 45.4338C5.42291 45.0704 5.22461 44.5776 5.22461 44.0638V16.9388C5.22461 16.4249 5.42291 15.9321 5.77588 15.5688C6.12885 15.2054 6.60758 15.0013 7.10675 15.0013H42.8675V40.9638" stroke="#1C1F35" stroke-width="2" stroke-linecap="round" stroke-linejoin="round"/>
<path d="M42.8672 29.3948H58.3672V44.1567C58.3672 44.6461 58.1631 45.1155 57.7997 45.4615C57.4364 45.8076 56.9435 46.002 56.4297 46.002H52.6931" stroke="#1C1F35" stroke-width="2" stroke-linecap="round" stroke-linejoin="round"/>
<path d="M9.65332 28.7033L9.65332 19.4301" stroke="#1C1F35" stroke-width="2" stroke-linecap="round" stroke-linejoin="round"/>
<path d="M29.5813 31.6087L38.8545 31.6087" stroke="#1C1F35" stroke-width="2" stroke-linecap="round" stroke-linejoin="round"/>
<path d="M29.5819 50.3235L32.9033 50.3235" stroke="#1C1F35" stroke-width="2" stroke-linecap="round" stroke-linejoin="round"/>
</svg>
