<svg width="52" height="59" viewBox="0 0 52 59" fill="none" xmlns="http://www.w3.org/2000/svg">
<path d="M4.83301 41.7498V14.9165" stroke="black" stroke-width="2" stroke-linecap="round" stroke-linejoin="round"/>
<path d="M43.167 14.9165V41.7498" stroke="black" stroke-width="2" stroke-linecap="round" stroke-linejoin="round"/>
<path d="M16.333 28.3335V32.1668" stroke="black" stroke-width="2" stroke-linecap="round" stroke-linejoin="round"/>
<path d="M24 26.4167V32.1667" stroke="black" stroke-width="2" stroke-linecap="round" stroke-linejoin="round"/>
<path d="M31.667 24.5V32.1667" stroke="black" stroke-width="2" stroke-linecap="round" stroke-linejoin="round"/>
<path d="M45.0833 7.25H2.91666C1.85812 7.25 1 8.10812 1 9.16666V13C1 14.0585 1.85812 14.9167 2.91666 14.9167H45.0833C46.1418 14.9167 46.9999 14.0585 46.9999 13V9.16666C46.9999 8.10812 46.1418 7.25 45.0833 7.25Z" stroke="black" stroke-width="2" stroke-linecap="round" stroke-linejoin="round"/>
<path d="M45.0833 7.25H2.91666C1.85812 7.25 1 8.10812 1 9.16666V13C1 14.0585 1.85812 14.9167 2.91666 14.9167H45.0833C46.1418 14.9167 46.9999 14.0585 46.9999 13V9.16666C46.9999 8.10812 46.1418 7.25 45.0833 7.25Z" fill="#FFD550" stroke="black" stroke-width="2" stroke-linecap="round" stroke-linejoin="round"/>
<path d="M17.3997 57.2948C15.5968 55.985 14.7876 52.8168 16.813 50.2047" stroke="#1C1F35" stroke-width="1.5" stroke-linecap="round" stroke-linejoin="round"/>
<path d="M1 1H22" stroke="#1C1F35" stroke-width="2" stroke-linecap="round" stroke-linejoin="round"/>
<path d="M51 18L51 28" stroke="#1C1F35" stroke-width="2" stroke-linecap="round" stroke-linejoin="round"/>
<path d="M24 41.75V49.4167" stroke="black" stroke-width="2" stroke-linecap="round" stroke-linejoin="round"/>
<path d="M24.0003 57.0834C26.1174 57.0834 27.8337 55.3672 27.8337 53.2501C27.8337 51.133 26.1174 49.4167 24.0003 49.4167C21.8832 49.4167 20.167 51.133 20.167 53.2501C20.167 55.3672 21.8832 57.0834 24.0003 57.0834Z" fill="#FFD550" stroke="black" stroke-width="2" stroke-linecap="round" stroke-linejoin="round"/>
<path d="M1 41.75H46.9999" stroke="black" stroke-width="2" stroke-linecap="round" stroke-linejoin="round"/>
</svg>
