<svg width="50" height="54" viewBox="0 0 50 54" fill="none" xmlns="http://www.w3.org/2000/svg">
<path d="M2.00391 21.1534V7.37489C2.00391 6.87686 2.20077 6.39923 2.5512 6.04707C2.90162 5.69491 3.3769 5.49707 3.87247 5.49707H41.2438C41.7394 5.49707 42.2147 5.69491 42.5651 6.04707C42.9155 6.39923 43.1124 6.87686 43.1124 7.37489V21.1534C43.1124 40.8704 26.4588 47.3959 23.1421 48.4991C22.7653 48.6393 22.351 48.6393 21.9742 48.4991C18.6575 47.3959 2.00391 40.8704 2.00391 21.1534Z" fill="#FFD550" stroke="#1C1F35" stroke-width="2" stroke-linecap="round" stroke-linejoin="round"/>
<path d="M18.3137 51.2406C15.3888 50.3181 8.21071 46.8345 1.22168 37.7451" stroke="#1C1F35" stroke-width="2" stroke-linecap="round" stroke-linejoin="round"/>
<path d="M32.8345 18.6416L19.1239 31.7863L12.2803 25.214" stroke="#1C1F35" stroke-width="2" stroke-linecap="round" stroke-linejoin="round"/>
<path d="M27.4901 29.5548L22.5566 34.5127" stroke="white" stroke-width="2" stroke-linecap="round" stroke-linejoin="round"/>
<path d="M48.2227 5.45777L48.2227 18.6787" stroke="#1C1F35" stroke-width="2" stroke-linecap="round" stroke-linejoin="round"/>
<path d="M21.556 1.5L1 1.5" stroke="#1C1F35" stroke-width="2" stroke-linecap="round" stroke-linejoin="round"/>
</svg>
