<svg width="52" height="57" viewBox="0 0 52 57" fill="none" xmlns="http://www.w3.org/2000/svg">
<path d="M25.6602 8.08132V1.91638" stroke="#1C1F35" stroke-width="2" stroke-linecap="round" stroke-linejoin="round"/>
<path d="M50.3195 36.8511C46.5692 49.9516 29.2046 54.5239 26.1221 55.2432C25.8187 55.3204 25.5008 55.3204 25.1974 55.2432C22.1149 54.5239 4.75034 49.9516 1 36.8511V28.0661C0.999964 27.6334 1.13652 27.2117 1.39021 26.8611C1.64389 26.5106 2.00176 26.2491 2.4128 26.1138L25.0176 18.5618C25.436 18.433 25.8835 18.433 26.3019 18.5618L48.9067 26.1138C49.3178 26.2491 49.6756 26.5106 49.9293 26.8611C50.183 27.2117 50.3195 27.6334 50.3195 28.0661V36.8511Z" stroke="#1C1F35" stroke-width="2" stroke-linecap="round" stroke-linejoin="round"/>
<path d="M26.1271 48.5815C23.6883 48.02 9.94964 44.4505 6.98242 34.223" stroke="#1C1F35" stroke-width="2" stroke-linecap="round" stroke-linejoin="round"/>
<path d="M6.98242 10.8988V24.0521L25.5288 17.4711L44.0752 24.0521V10.8988C44.0752 9.24195 42.7321 7.8988 41.0752 7.8988H9.98242C8.32557 7.8988 6.98242 9.24195 6.98242 10.8988Z" fill="#FFD550" stroke="#1C1F35" stroke-width="2"/>
<path d="M25.6602 38.9062V18.4591" stroke="#1C1F35" stroke-width="2" stroke-linecap="round" stroke-linejoin="round"/>
<path d="M30.9141 37.8127L30.9141 29.4369" stroke="#1C1F35" stroke-width="2" stroke-linecap="round" stroke-linejoin="round"/>
<path d="M11.7695 18.6676V12.6849" stroke="#1C1F35" stroke-width="2" stroke-linecap="round" stroke-linejoin="round"/>
<path d="M48.8613 21.0611V10.2922" stroke="#1C1F35" stroke-width="2" stroke-linecap="round" stroke-linejoin="round"/>
</svg>
