<svg width="57" height="47" viewBox="0 0 57 47" fill="none" xmlns="http://www.w3.org/2000/svg">
<path d="M2.36719 45.6087H54.7481" stroke="#141414" stroke-width="2" stroke-linecap="round" stroke-linejoin="round"/>
<path d="M32.7479 45.6087V3.52175C32.7479 3.01438 32.5429 2.52779 32.178 2.16902C31.8131 1.81026 31.3183 1.6087 30.8023 1.6087H7.45534C6.93934 1.6087 6.44448 1.81026 6.07961 2.16902C5.71475 2.52779 5.50977 3.01438 5.50977 3.52175V45.6087" stroke="#141414" stroke-width="2" stroke-linecap="round" stroke-linejoin="round"/>
<path d="M32.748 14.1801H48.6052C50.262 14.1801 51.6052 15.5233 51.6052 17.1801V44.5611H32.748V14.1801Z" fill="#FFD550" stroke="#141414" stroke-width="2" stroke-linecap="round" stroke-linejoin="round"/>
<path d="M13.8906 11.0373H21.224" stroke="#141414" stroke-width="2" stroke-linecap="round" stroke-linejoin="round"/>
<path d="M1.31934 41.4182L1.31934 26.7515" stroke="#141414" stroke-width="2" stroke-linecap="round" stroke-linejoin="round"/>
<path d="M55.7949 30.9417L55.7949 16.275" stroke="#141414" stroke-width="2" stroke-linecap="round" stroke-linejoin="round"/>
<path d="M35.8906 9.98969L43.224 9.98969" stroke="#141414" stroke-width="2" stroke-linecap="round" stroke-linejoin="round"/>
<path d="M17.0332 26.7513H24.3665" stroke="#141414" stroke-width="2" stroke-linecap="round" stroke-linejoin="round"/>
<path d="M13.8906 36.1801H21.224" stroke="#141414" stroke-width="2" stroke-linecap="round" stroke-linejoin="round"/>
<path d="M40.0811 36.1801H44.2715" stroke="#141414" stroke-width="2" stroke-linecap="round" stroke-linejoin="round"/>
<path d="M40.0811 26.7513H44.2715" stroke="#141414" stroke-width="2" stroke-linecap="round" stroke-linejoin="round"/>
</svg>
